<?xml version="1.0" encoding="iso-8859-1"?>
<!-- Generator: Adobe Illustrator 19.0.0, SVG Export Plug-In . SVG Version: 6.00 Build 0)  -->
<svg version="1.1" id="Layer_1" xmlns="http://www.w3.org/2000/svg" xmlns:xlink="http://www.w3.org/1999/xlink" x="0px" y="0px"
	 viewBox="0 0 511.997 511.997" style="enable-background:new 0 0 511.997 511.997;" xml:space="preserve">
<path style="fill:#59474E;" d="M299.218,424.832c-1.454-0.009-2.89-0.372-4.167-1.064c-23.583-12.501-36.704-27.129-40.162-44.329
	c-6.029-31.385,20.657-62.947,48.939-96.371s56.652-67.203,48.585-96.726c-6.561-23.672-37.325-44.95-91.406-63.39
	c-4.522-1.88-6.658-7.066-4.779-11.588c1.702-4.096,6.171-6.304,10.453-5.169c60.908,20.746,94.509,45.393,102.843,75.448
	c10.639,38.566-21.189,76.157-52.042,112.596c-24.381,28.725-49.471,58.514-45.038,81.565c2.305,11.969,12.412,22.519,31.03,32.36
	c4.309,2.323,5.913,7.704,3.591,12.013C305.504,423.059,302.489,424.85,299.218,424.832z"/>
<path style="fill:#2FA8CC;" d="M485.399,360.999c-1.951-51.422-88.658-104.616-124.121-69.153l-79.792,115.255l-7.802,2.394
	c2.394,2.128,4.965,4.344,7.802,6.472l33.069,24.824c1.534,1.153,3.404,1.773,5.319,1.773h94.598l2.394-2.748
	c18.095,23.14,51.528,27.236,74.668,9.141c23.14-18.095,27.236-51.528,9.141-74.668
	C496.482,368.916,491.295,364.412,485.399,360.999z"/>
<path style="fill:#3F5C6C;" d="M485.399,360.999c-13.148-7.545-28.885-9.123-43.265-4.344l-1.064-2.748l-79.792-62.061
	C396.741,256.382,483.449,309.577,485.399,360.999z"/>
<g>
	<path style="fill:#59474E;" d="M511.997,407.101c0.027,29.381-23.778,53.213-53.15,53.239
		c-29.381,0.027-53.213-23.778-53.239-53.15c-0.018-22.936,14.673-43.301,36.438-50.526c14.407-4.805,30.188-3.227,43.354,4.344
		C501.863,370.512,512.006,388.084,511.997,407.101z"/>
	<path style="fill:#59474E;" d="M77.573,415.967c-4.894,0.009-8.875-3.954-8.884-8.848c0-1.667,0.461-3.298,1.348-4.717
		l158.255-254.537V70.2c0-2.075,0.718-4.078,2.039-5.674c8.52-10.887,22.847-15.435,36.084-11.437
		c12.102,3.014,21.411,12.696,23.938,24.913c0.257,2.004-0.186,4.043-1.241,5.763L85.197,411.8
		C83.557,414.424,80.667,416.002,77.573,415.967z M246.023,73.747v45.659l25.799-41.492c-2.42-3.768-6.144-6.516-10.462-7.713
		C255.979,68.454,250.083,69.819,246.023,73.747z"/>
	<path style="fill:#59474E;" d="M86.438,424.832l5.408-10.728c2.004-3.998,0.709-8.866-3.014-11.348l-11.703-7.802
		c-4.025-2.784-9.548-1.773-12.332,2.252c-0.231,0.337-0.434,0.674-0.612,1.028l-13.21,26.597H13.562
		c-4.176-0.124-7.864,2.686-8.866,6.738l-4.433,17.732c-1.179,4.752,1.72,9.557,6.472,10.736c0.78,0.195,1.587,0.284,2.394,0.257
		h101.425c4.894,0.142,8.981-3.706,9.123-8.6c0.027-0.807-0.062-1.614-0.257-2.394l-4.433-17.732
		c-1.002-4.052-4.69-6.862-8.866-6.738L86.438,424.832"/>
</g>
<g>
</g>
<g>
</g>
<g>
</g>
<g>
</g>
<g>
</g>
<g>
</g>
<g>
</g>
<g>
</g>
<g>
</g>
<g>
</g>
<g>
</g>
<g>
</g>
<g>
</g>
<g>
</g>
<g>
</g>
</svg>
