<?xml version="1.0" standalone="no"?>
<!DOCTYPE svg PUBLIC "-//W3C//DTD SVG 20010904//EN"
 "http://www.w3.org/TR/2001/REC-SVG-20010904/DTD/svg10.dtd">
<svg version="1.0" xmlns="http://www.w3.org/2000/svg"
 width="1280.000000pt" height="1032.000000pt" viewBox="0 0 1280.000000 1032.000000"
 preserveAspectRatio="xMidYMid meet">
<metadata>
Created by potrace 1.15, written by Peter Selinger 2001-2017
</metadata>
<g transform="translate(0.000000,1032.000000) scale(0.100000,-0.100000)"
fill="#ff9800" stroke="none">
<path d="M4755 10304 c-108 -24 -207 -77 -284 -153 -72 -71 -157 -200 -193
-291 l-21 -55 -96 -44 c-359 -163 -836 -448 -1166 -696 -283 -213 -639 -546
-834 -780 -429 -515 -721 -1050 -953 -1749 -168 -506 -281 -1028 -423 -1954
-36 -235 -86 -560 -111 -722 -40 -262 -115 -696 -131 -757 -4 -17 -12 -23 -34
-23 -75 0 -357 -139 -433 -214 -158 -154 -69 -316 289 -525 37 -21 142 -111
261 -222 109 -103 240 -221 289 -264 684 -584 1438 -953 2330 -1139 244 -51
392 -72 915 -131 417 -47 1084 -124 1615 -186 917 -106 1034 -120 1328 -154
166 -19 338 -39 382 -45 409 -52 1565 -182 1695 -191 410 -29 881 15 1268 117
397 104 724 254 1246 568 315 190 450 259 551 282 368 82 481 131 533 234 47
95 16 179 -116 310 -48 47 -136 122 -195 166 l-109 79 6 85 c73 1057 86 2092
36 2805 -100 1403 -422 2479 -989 3300 -132 192 -269 355 -460 546 -209 209
-366 338 -592 489 -85 56 -155 106 -157 110 -2 5 2 11 7 14 12 8 -152 263
-244 381 -200 256 -424 375 -705 375 -75 0 -103 -5 -188 -35 -119 -41 -228
-90 -312 -139 l-61 -36 -222 44 c-122 25 -323 61 -447 81 -124 20 -235 38
-248 41 -20 4 -22 9 -17 57 2 28 7 100 10 160 l6 107 -36 0 c-19 0 -115 10
-213 21 -211 26 -492 30 -663 10 -64 -7 -121 -16 -126 -20 -5 -3 -16 -55 -24
-116 l-14 -110 -401 2 -400 2 -78 76 c-92 89 -229 182 -334 226 -61 25 -107
35 -237 50 -233 28 -414 32 -500 13z"/>
</g>
</svg>
